<svg width="24" height="24" viewBox="0 0 24 24" fill="none" xmlns="http://www.w3.org/2000/svg">
<path d="M11.9116 10.696V13.5163L11.6042 13.7638V11.4178H11.0256L11.9116 10.696ZM22.5721 10.2656C22.8295 10.2656 23.0685 10.3044 23.2891 10.3821C23.5013 10.4554 23.6844 10.5378 23.8383 10.6293L23.8652 10.6456L23.5465 11.2523C23.5174 11.2285 23.4764 11.2013 23.4233 11.1707L23.3932 11.1536L23.3607 11.1359L23.3259 11.1175C23.2278 11.0644 23.1114 11.0194 22.9765 10.9827C22.8417 10.9418 22.7028 10.9214 22.5598 10.9214C22.1758 10.9214 21.9837 11.0296 21.9837 11.2462C21.9837 11.3728 22.0532 11.4627 22.1921 11.5158L22.2237 11.5273L22.2574 11.539L22.293 11.5508L22.3307 11.5629L22.3703 11.5751L22.412 11.5875C22.4191 11.5896 22.4263 11.5917 22.4335 11.5938L22.4782 11.6065L22.5249 11.6194L22.5735 11.6324L22.6242 11.6457L22.6768 11.6591L22.7595 11.6797L22.8172 11.6936C23.0583 11.7549 23.2666 11.8243 23.4423 11.9019C23.6146 11.9763 23.7475 12.0751 23.8409 12.1983L23.8529 12.2145C23.951 12.3411 24 12.5086 24 12.717C24 12.9703 23.9346 13.1746 23.8039 13.3299C23.6772 13.481 23.5097 13.5913 23.3014 13.6608C23.093 13.7262 22.8683 13.7589 22.6272 13.7589C22.3494 13.7589 22.0736 13.72 21.7999 13.6424C21.5392 13.5685 21.3063 13.4686 21.1011 13.3428L21.0706 13.3237L21.4015 12.6802C21.4546 12.7334 21.5425 12.7926 21.6651 12.858C21.7917 12.9233 21.9388 12.9785 22.1063 13.0234C22.2738 13.0684 22.4515 13.0909 22.6395 13.0909C23.0154 13.0909 23.2033 12.9908 23.2033 12.7906C23.2033 12.6557 23.1155 12.5597 22.9398 12.5025L22.8975 12.4877L22.8532 12.4726L22.8067 12.4573L22.7581 12.4418L22.7074 12.426L22.6545 12.41C22.6456 12.4074 22.6365 12.4047 22.6273 12.4019L22.5713 12.3856L22.5132 12.369L22.453 12.3522L22.3906 12.3351L22.2931 12.3091L22.2595 12.3003C21.9081 12.2104 21.6467 12.096 21.4751 11.9571C21.3076 11.8141 21.2238 11.6098 21.2238 11.3442C21.2238 11.1073 21.283 10.9091 21.4015 10.7498C21.5241 10.5904 21.6875 10.4699 21.8918 10.3882C22.1002 10.3065 22.3269 10.2656 22.5721 10.2656ZM16.8887 10.2718C17.148 10.2718 17.3847 10.319 17.5986 10.4134L17.6242 10.425C17.8448 10.523 18.0328 10.6558 18.188 10.8233C18.3474 10.9867 18.4698 11.1726 18.5556 11.381C18.6414 11.5894 18.6844 11.8018 18.6844 12.0184C18.6844 12.2431 18.6395 12.4596 18.5496 12.668C18.4597 12.8723 18.3329 13.0561 18.1695 13.2196C18.0102 13.3789 17.8203 13.5056 17.5997 13.5995C17.3791 13.6935 17.138 13.7405 16.8765 13.7405C16.6069 13.7405 16.3617 13.6935 16.1411 13.5995C15.9205 13.5015 15.7304 13.3707 15.571 13.2073C15.4117 13.0398 15.2891 12.8518 15.2033 12.6435C15.1177 12.4351 15.0746 12.2206 15.0746 12C15.0746 11.7753 15.1196 11.5587 15.2095 11.3504C15.2953 11.1515 15.4147 10.9749 15.5675 10.8207L15.5896 10.7988C15.753 10.6354 15.9449 10.5067 16.1655 10.4127C16.3861 10.3187 16.6272 10.2718 16.8887 10.2718ZM2.10207 10.2901L3.59129 13.716H2.80684L2.46365 12.9131H1.13377L0.790573 13.716H0L1.49535 10.2901H2.10207ZM6.48866 10.2901L7.43245 11.5036L8.37623 10.2901H9.17906L7.82467 12.0245L9.13616 13.716H8.33333L7.43245 12.5516L6.53769 13.716H5.7226L7.04023 12.0245L5.6797 10.2901H6.48866ZM12.4737 10.2744V12.5669H13.0685L12.1669 13.3067V10.488L12.4737 10.2744ZM16.8765 10.9336C16.6518 10.9336 16.4597 10.9867 16.3003 11.093C16.1451 11.1992 16.0266 11.334 15.9449 11.4974C15.8632 11.6609 15.8223 11.8304 15.8223 12.0061C15.8223 12.19 15.8653 12.3657 15.9511 12.5332C16.0368 12.6966 16.1573 12.8294 16.3126 12.9315C16.4719 13.0337 16.6619 13.0847 16.8825 13.0847C17.1073 13.0847 17.2972 13.0316 17.4525 12.9254C17.6079 12.8151 17.7262 12.6782 17.8079 12.5148C17.8897 12.3473 17.9306 12.1757 17.9306 12C17.9306 11.8161 17.8877 11.6425 17.8019 11.4791C17.7161 11.3156 17.5936 11.1849 17.4341 11.0868C17.2789 10.9847 17.0931 10.9336 16.8765 10.9336ZM1.80177 11.191L1.29924 12.2696H2.28592L1.80177 11.191Z" fill="#5A29E4"/>
</svg>
