<svg width="64" height="64" viewBox="0 0 64 64" fill="none" xmlns="http://www.w3.org/2000/svg">
<circle cx="32" cy="32" r="32" fill="#FC6D27"/>
<circle cx="32" cy="32" r="32" fill="url(#paint0_linear_15_230)" fill-opacity="0.24"/>
<path d="M46.1999 35.1866L31.9999 45.5066L17.7999 35.1866C17.6096 35.0466 17.4684 34.85 17.3965 34.6249C17.3247 34.3998 17.3259 34.1577 17.3999 33.9333L19.0266 28.8933L22.2799 18.8799C22.3115 18.7984 22.3617 18.7253 22.4266 18.6666C22.5323 18.5701 22.6702 18.5166 22.8133 18.5166C22.9564 18.5166 23.0943 18.5701 23.1999 18.6666C23.2685 18.7328 23.3189 18.8154 23.3466 18.9066L26.5999 28.8933H37.3999L40.6533 18.8799C40.6848 18.7984 40.7351 18.7253 40.8 18.6666C40.9056 18.5701 41.0435 18.5166 41.1866 18.5166C41.3297 18.5166 41.4676 18.5701 41.5733 18.6666C41.6418 18.7328 41.6923 18.8154 41.72 18.9066L44.9733 28.9199L46.6666 33.9333C46.734 34.1646 46.725 34.4115 46.6409 34.6372C46.5568 34.863 46.4022 35.0557 46.1999 35.1866V35.1866Z" stroke="white" stroke-width="2" stroke-linecap="round" stroke-linejoin="round"/>
<defs>
<linearGradient id="paint0_linear_15_230" x1="56.5" y1="51.5" x2="24" y2="25" gradientUnits="userSpaceOnUse">
<stop/>
<stop offset="1" stop-opacity="0"/>
</linearGradient>
</defs>
</svg>
