<svg width="24" height="24" viewBox="0 0 24 24" fill="none" xmlns="http://www.w3.org/2000/svg">
<path d="M0 12C0 18.6274 5.37258 24 12 24C18.6274 24 24 18.6274 24 12C24 5.37258 18.6274 0 12 0C5.37258 0 0 5.37258 0 12Z" fill="#FC6D26"/>
<path fill-rule="evenodd" clip-rule="evenodd" d="M17.9644 12.6473L17.335 10.7134C17.3316 10.6956 17.3265 10.6781 17.3197 10.6613L16.057 6.77434C16.0234 6.67406 15.9589 6.58697 15.8728 6.52549C15.7867 6.46401 15.6834 6.4313 15.5777 6.43202C15.4722 6.43138 15.3693 6.46455 15.284 6.52667C15.1988 6.58878 15.1357 6.67658 15.104 6.77718L13.9004 10.4812H10.1015L8.89614 6.77718C8.86453 6.67692 8.80177 6.58938 8.71695 6.5273C8.63212 6.46521 8.5297 6.43183 8.4246 6.43202H8.42176C8.3159 6.43204 8.21272 6.46544 8.12691 6.52747C8.04113 6.58949 7.97706 6.677 7.94385 6.77753L6.68004 10.6691C6.68004 10.6713 6.67903 10.6731 6.67798 10.6751L6.67615 10.679L6.03539 12.6477C5.98831 12.7921 5.9882 12.9476 6.03509 13.0921C6.08197 13.2365 6.17341 13.3624 6.29629 13.4516L11.8323 17.4742C11.881 17.5095 11.9397 17.5283 11.9998 17.528C12.06 17.5277 12.1185 17.5082 12.1668 17.4724L17.7038 13.4516C17.8268 13.3624 17.9182 13.2364 17.9651 13.0919C18.0119 12.9474 18.0117 12.7917 17.9644 12.6473ZM9.50574 10.4812L8.41929 7.1418L7.33672 10.4812H9.50574ZM16.667 10.4812L15.5826 7.1418L14.4965 10.4812H16.667ZM9.68947 11.0497L11.2326 15.7991L7.52825 11.0497H9.68947ZM12.7693 15.8001L14.2491 11.2469L14.3128 11.0497H16.4758L13.1244 15.3431L12.7693 15.8001ZM10.286 11.0476H13.7166L12.0001 16.3265L10.286 11.0476ZM6.62943 12.9935C6.60332 12.9746 6.58391 12.9478 6.57397 12.917C6.56404 12.8863 6.56413 12.8532 6.5742 12.8226L7.04998 11.3605L10.5394 15.8341L6.62943 12.9935ZM13.4607 15.833L17.3711 12.9935C17.3972 12.9745 17.4166 12.9473 17.4265 12.9165C17.4363 12.8857 17.4361 12.8525 17.4259 12.8219L16.9501 11.3605L13.4738 15.816L13.4607 15.833Z" fill="white"/>
</svg>


