<svg width="150" height="150" viewBox="0 0 150 150" fill="none" xmlns="http://www.w3.org/2000/svg">
<g clip-path="url(#clip0_333_297)">
<path d="M65.3257 10.2092C64.8326 10.2989 64.4011 10.5081 64.3086 10.7173C64.2162 10.9265 64.4319 12.3609 64.8018 13.8851C65.1408 15.4391 65.4182 16.7839 65.4182 16.9334C65.4182 17.0529 64.925 16.9334 64.2778 16.6943C62.2128 15.8575 59.5931 16.9334 58.3911 19.115C57.6822 20.4 57.7439 23.777 58.4836 25.8391C60.0554 30.0529 64.2778 31.4874 67.1441 28.7977C68.1304 27.8713 68.192 27.8713 68.192 28.469C68.192 28.8276 68.2536 29.1265 68.3461 29.1265C68.9317 29.1265 71.5823 28.4391 71.5823 28.2897C71.5823 28.1701 70.7193 24.0161 69.6714 19.0253L67.7605 10L66.99 10.0299C66.5585 10.0598 65.788 10.1494 65.3257 10.2092ZM65.6955 19.7127C66.2811 20.2805 67.2982 25.2414 66.9284 25.8989C66.2811 27.0644 64.0312 27.423 63.0758 26.5265C61.843 25.3012 61.0725 21.7747 61.7813 20.4598C62.5519 19.0552 64.586 18.6368 65.6955 19.7127Z" fill="black"/>
<path d="M81.4754 12.1517C80.674 16.1264 78.7015 26.6758 78.6091 27.4529L78.5166 28.3494L81.4445 28.8575C85.0814 29.5149 86.8689 29.5448 88.5024 28.977C91.4612 27.9609 93.1563 25.8689 93.9577 22.223C94.9131 17.8896 93.6495 14.6023 90.29 12.5701C89.5811 12.1517 83.1397 10.5977 82.0918 10.5977C81.9377 10.5977 81.6603 11.3149 81.4754 12.1517ZM88.1326 14.9609C88.6874 15.1701 89.427 15.7977 89.7661 16.3356C90.7215 17.8 90.5058 21.5356 89.3654 23.8368C88.2867 25.9287 87.0539 26.5862 84.5882 26.3471C83.6636 26.2575 82.8623 26.1379 82.8006 26.0781C82.7698 26.0184 83.2321 23.3287 83.8485 20.0712L84.9889 14.1839L86.0676 14.3632C86.6532 14.4827 87.6086 14.7218 88.1326 14.9609Z" fill="black"/>
<path d="M48.9275 20.8183C48.2494 21.2068 47.3556 22.0137 46.9549 22.6413C46.2769 23.6275 46.1844 23.6873 45.8146 23.2091C45.4756 22.731 45.3523 22.7609 44.027 23.3586C43.2565 23.7471 42.6093 24.1655 42.6093 24.3448C42.6093 24.5241 43.8729 27.0643 45.3831 30.0229C46.9241 32.9816 48.1569 35.4919 48.1569 35.6115C48.1569 35.731 47.7563 35.3724 47.294 34.8046L46.4002 33.7885L43.1332 36.5379L39.8971 39.2873L38.3252 37.554C37.4622 36.6275 36.7534 35.7609 36.7534 35.6712C36.7534 35.5517 37.9245 34.5057 39.3731 33.3103C40.8217 32.1149 41.9928 31.0689 41.9928 30.9494C41.9928 30.8597 41.5922 30.2919 41.0991 29.7241L40.2053 28.708L37.9554 30.6206C36.6917 31.6666 35.4281 32.7126 35.1507 32.9517C34.6884 33.3103 34.5035 33.2206 33.4556 32.1149C32.8083 31.4275 32.1919 30.6804 32.0687 30.4712C31.9146 30.2023 32.8392 29.216 34.9041 27.4827C36.5993 26.0781 37.9862 24.7931 37.9862 24.6436C37.9862 24.4643 37.5855 23.9264 37.0924 23.3885L36.1986 22.4321L31.6372 26.2873C29.1099 28.3793 27.0449 30.2321 27.0449 30.3517C27.0449 30.6804 38.6951 43.7701 38.9724 43.7701C39.1265 43.7701 41.2532 42.0666 43.7496 39.9747C46.5543 37.6138 48.9275 35.8804 50.0678 35.3724L51.8554 34.5356L49.698 30.3218C48.5268 28.0206 47.5405 25.9586 47.5405 25.7494C47.5405 25.5103 47.8796 24.9724 48.311 24.5241C48.9275 23.8666 49.2973 23.7172 50.2527 23.8068L51.3931 23.8965L53.7046 28.2896L56.0162 32.6528L57.6188 31.8459L59.2523 31.0689L56.9716 26.5862C55.708 24.1057 54.2902 21.7149 53.7663 21.2367C52.4718 20.0413 50.5918 19.8919 48.9275 20.8183Z" fill="black"/>
<path fill-rule="evenodd" clip-rule="evenodd" d="M95.1296 25.3907C96.085 23.3585 97.3486 21.9838 98.8588 21.2965C101.417 20.1309 104.992 21.1171 106.811 23.508C107.766 24.7332 107.858 27.124 107.026 29.1861C106.656 30.1424 106.256 30.9792 106.102 31.0689C105.978 31.1287 104.191 30.4114 102.126 29.4252C100.061 28.439 98.3041 27.6321 98.2116 27.6321C98.15 27.6321 98.0883 28.17 98.0883 28.8574C98.0883 29.8436 98.2732 30.262 99.0129 30.9195C100.03 31.816 101.324 32.1746 102.681 31.9355C103.513 31.7562 103.605 31.8459 103.913 32.8919C104.345 34.4459 104.037 34.6551 101.54 34.6551C96.1466 34.5953 92.9105 29.9631 95.1296 25.3907ZM104.175 27.9309L99.4366 25.8016C100.264 24.2387 100.77 24.0085 102.126 24.0085C103.482 24.0085 104.175 24.5315 104.638 25.3907C105.1 26.2499 104.565 27.2621 104.175 27.9309Z" fill="black"/>
<path fill-rule="evenodd" clip-rule="evenodd" d="M93.6173 131.85C92.6848 129.801 92.464 127.971 92.9371 126.426C93.7373 123.808 96.8723 121.903 99.9236 122.202C101.503 122.338 103.408 123.875 104.445 125.856C104.937 126.763 105.316 127.612 105.283 127.782C105.247 127.911 103.507 128.713 101.375 129.534C99.243 130.355 97.454 131.074 97.3926 131.141C97.3517 131.185 97.7255 131.59 98.2555 132.051C99.016 132.713 99.4614 132.861 100.46 132.771C101.827 132.642 102.963 131.953 103.679 130.819C104.094 130.102 104.224 130.096 105.235 130.576C106.72 131.309 106.677 131.67 105.019 133.462C101.39 137.294 95.6692 136.51 93.6173 131.85ZM101.584 127.06L96.7947 129.034C96.139 127.391 96.2975 126.874 97.1981 125.9C98.0987 124.927 98.9626 124.78 99.9322 125.024C100.902 125.269 101.327 126.331 101.584 127.06Z" fill="black"/>
<path fill-rule="evenodd" clip-rule="evenodd" d="M117.637 39.2092C119.493 37.8859 121.287 37.2824 122.951 37.3956C125.771 37.5862 128.397 40.1365 128.784 43.0834C129.003 44.6048 127.882 46.7363 126.119 48.144C125.316 48.8044 124.546 49.3458 124.366 49.3513C124.228 49.3453 123.028 47.8744 121.72 46.0377C120.412 44.2009 119.283 42.6663 119.203 42.6226C119.149 42.5935 118.825 43.0341 118.479 43.6344C117.984 44.4956 117.935 44.9484 118.251 45.872C118.688 47.1354 119.639 48.0601 120.943 48.492C121.76 48.7285 121.795 48.8505 121.539 49.9095C121.135 51.4705 120.761 51.5076 118.581 50.3282C113.9 47.7279 113.402 42.1539 117.637 39.2092ZM124.26 45.701L121.192 41.6028C122.7 40.6288 123.257 40.6668 124.441 41.3074C125.626 41.948 125.968 42.7323 125.94 43.701C125.912 44.6697 124.937 45.3012 124.26 45.701Z" fill="black"/>
<path fill-rule="evenodd" clip-rule="evenodd" d="M132.396 84.0042C134.643 84.4961 136.289 85.4149 137.291 86.708C138.99 88.8982 138.724 92.4932 136.682 94.7075C135.64 95.8646 133.245 96.4406 130.994 96.0718C129.953 95.916 129.026 95.7066 128.904 95.5786C128.818 95.4738 129.178 93.6305 129.752 91.469C130.325 89.3075 130.781 87.4752 130.763 87.3874C130.75 87.3289 130.194 87.3802 129.5 87.5206C128.505 87.722 128.12 87.983 127.607 88.8193C126.91 89.9678 126.812 91.2698 127.33 92.5082C127.681 93.2615 127.61 93.3676 126.617 93.8737C125.136 94.6006 124.862 94.3508 124.352 91.9811C123.311 86.8492 127.327 82.8315 132.396 84.0042ZM131.679 93.1092L132.861 88.1764C134.607 88.6425 134.943 89.0758 135.22 90.3629C135.497 91.65 135.111 92.4151 134.338 93.0294C133.565 93.6436 132.434 93.3431 131.679 93.1092Z" fill="black"/>
<path d="M109.059 31.7563C107.703 35.1632 106.562 38.0919 106.501 38.2712C106.439 38.4804 106.994 39.108 107.734 39.7057L109.121 40.7816L115.161 37.1356C118.49 35.1034 121.202 33.3701 121.202 33.2804C121.202 33.1609 120.586 32.593 119.846 31.9953L118.49 30.9494L114.73 33.4896C112.665 34.8942 110.939 35.9999 110.877 35.9402C110.846 35.8804 111.617 34.0275 112.665 31.8459L114.514 27.8114L113.158 26.6758C112.418 26.0482 111.74 25.5402 111.648 25.5402C111.555 25.5402 110.384 28.3195 109.059 31.7563Z" fill="black"/>
<path d="M28.2788 42.5748L26.2139 45.2645L26.9227 45.8622C28.5254 47.1771 28.4946 47.207 30.7445 44.2783L32.8403 41.5587L31.7924 40.7219C31.2376 40.2737 30.6828 39.8852 30.5596 39.8852C30.4671 39.8852 29.45 41.1104 28.2788 42.5748Z" fill="black"/>
<path d="M20.5756 46.1607C20.0208 47.2067 19.651 47.2665 18.4182 46.4596C17.9251 46.1308 17.3395 45.8619 17.1545 45.8619C16.8772 45.8619 15.4902 48.2825 15.4902 48.7906C15.4902 48.9101 16.1066 49.3285 16.8772 49.717C18.2333 50.4044 18.2333 50.4343 17.8018 51.2412C17.3703 52.078 17.3703 52.1078 18.4798 52.7354C19.5585 53.3331 19.651 53.363 20.0208 52.855C20.2366 52.586 20.4523 52.1975 20.514 52.0182C20.6064 51.809 22.1783 52.4366 24.459 53.5722C27.1096 54.8573 28.6198 55.455 29.3903 55.4251C31.0854 55.4251 32.4723 54.14 33.1812 51.9285C33.3661 51.3607 33.212 51.1814 32.1641 50.6435L30.9313 50.0458L30.4382 50.9423C30.1608 51.4205 29.7293 51.8389 29.4519 51.8389C28.743 51.8389 22.8563 48.7906 22.6406 48.3124C22.5789 48.1032 22.6406 47.7745 22.8563 47.5653C23.4727 46.9676 23.1954 46.2802 22.1166 45.7722L21.0379 45.2642L20.5756 46.1607Z" fill="black"/>
<path d="M128.54 49.7769L119.972 53.9309L120.804 55.5447L121.605 57.1585L130.266 52.9746C135.043 50.6734 138.957 48.7309 139.019 48.701C139.204 48.5516 137.539 45.5631 137.293 45.593C137.17 45.593 133.224 47.4757 128.54 49.7769Z" fill="black"/>
<path d="M17.7086 55.7241C15.2738 56.262 13.856 59.2804 14.8731 61.8207C15.1197 62.508 15.0889 62.5977 14.4725 62.5977C13.8869 62.5977 13.7019 62.8368 13.3629 64.1218C13.1472 64.9287 12.9931 65.6758 13.0547 65.7057C13.1164 65.7655 16.1059 66.6322 19.6503 67.5885L26.1226 69.3816L26.6465 67.7379C26.9239 66.8115 27.1397 66.0345 27.1088 66.0046C27.078 65.9747 25.0439 65.377 22.5782 64.6896C17.0306 63.1655 16.26 62.4781 17.4929 60.2069C18.1401 59.0115 18.9722 59.0414 24.1193 60.5057C26.4 61.1632 28.28 61.7011 28.3417 61.7011C28.4958 61.7011 29.4512 58.4138 29.3279 58.3241C29.1738 58.1747 20.4824 55.8138 19.4962 55.6345C19.0647 55.5747 18.2634 55.6046 17.7086 55.7241Z" fill="black"/>
<path d="M128.356 56.292C126.506 56.9195 124.719 58.3839 124.102 59.8184C122.993 62.3287 124.133 66.0644 126.476 67.5885C127.616 68.3058 128.078 68.4253 130.112 68.4253C133.256 68.4253 135.629 67.3494 136.985 65.3172C137.818 64.0621 137.879 63.7632 137.787 61.7908C137.694 59.9977 137.54 59.4299 136.77 58.354C134.982 55.8736 131.869 55.1264 128.356 56.292ZM134.088 59.908C135.075 60.8046 135.013 62.6874 133.996 63.6138C133.102 64.4207 131.284 64.9885 129.558 64.9885C127.061 64.9885 125.767 62.3885 127.493 60.7747C129.095 59.2805 132.855 58.8023 134.088 59.908Z" fill="black"/>
<path d="M16.1357 69.8896C13.5468 70.7264 11.79 73.1172 11.79 75.8965C11.79 80.1103 15.6118 82.8597 20.3581 82.0827C24.3032 81.4551 26.1216 79.2436 25.9058 75.4781C25.7825 72.908 24.7963 71.3241 22.7929 70.3976C21.0362 69.5608 17.9233 69.3218 16.1357 69.8896ZM21.8375 73.8045C25.1969 75.9264 21.7451 79.5723 17.3994 78.4367C15.6118 77.9884 14.8721 77.2114 14.8721 75.8068C14.8721 74.5815 15.3652 73.9241 16.7213 73.3861C17.7692 72.9379 20.8821 73.2068 21.8375 73.8045Z" fill="black"/>
<path d="M130.756 70.3978C126.102 70.4874 121.91 70.607 121.448 70.6369C120.616 70.6668 120.585 70.6966 120.585 72.4897V74.3127L123.821 74.1035L127.088 73.8943L126.41 74.9702C125.886 75.8369 125.794 76.4047 125.886 77.6599C126.04 79.5127 126.718 80.5288 128.444 81.4553C130.108 82.3817 134.054 82.5909 136.242 81.9035C137.937 81.3357 139.54 79.8714 139.879 78.5564C140.218 77.2415 139.817 75.1495 139.046 74.3725L138.368 73.6553H139.016C139.632 73.6553 139.694 73.5058 139.694 71.8622C139.694 70.876 139.601 70.0989 139.478 70.1288C139.324 70.1587 135.41 70.2783 130.756 70.3978ZM136.427 74.4323C137.136 75.0898 137.074 77.0921 136.334 77.8093C135.101 79.0047 130.632 79.0645 129.43 77.8989C128.598 77.0921 128.567 75.4185 129.369 74.5518C129.862 74.0139 130.293 73.9541 132.944 73.9541C135.256 73.9541 136.057 74.0737 136.427 74.4323Z" fill="black"/>
<path d="M13.5483 84.1149C12.9319 84.2344 12.3155 84.4137 12.2231 84.5034C11.7608 84.9218 12.5313 86.5655 13.5792 87.4022C14.5654 88.1793 14.6271 88.2988 14.0415 88.2988C13.086 88.2988 13.0244 88.5678 13.4251 90.2712L13.7949 91.7953L20.5138 90.5701L27.2326 89.3747L27.0477 87.8804C26.9244 87.0436 26.7087 86.2367 26.5854 86.1172C26.4621 85.9678 24.4588 86.2068 22.1473 86.6551C19.8049 87.0735 17.6475 87.3425 17.3084 87.2528C16.5996 87.0137 15.7982 85.639 15.7982 84.5632C15.7982 83.7563 15.6133 83.7264 13.5483 84.1149Z" fill="black"/>
<path d="M18.6637 94.1564C18.1089 94.3954 17.6466 94.6345 17.6466 94.6644C17.6466 94.7242 18.2013 96.0989 18.8794 97.7127C19.5574 99.3265 20.1122 100.821 20.1122 101C20.1122 101.269 16.537 102.943 15.9823 102.943C15.9206 102.943 15.2118 101.329 14.3796 99.3564C13.5475 97.3839 12.7153 95.7701 12.4996 95.7701C11.914 95.7701 9.91064 96.7564 10.0031 96.9954C10.0647 97.115 11.0818 99.5058 12.253 102.345C14.1639 106.828 14.4721 107.425 15.0268 107.306C15.8282 107.097 31.2076 100.94 31.4233 100.731C31.7624 100.402 30.3446 97.4138 29.9131 97.5035C29.6974 97.5633 28.1564 98.1311 26.4921 98.7885C24.7969 99.446 23.3484 99.9242 23.2559 99.8046C23.1326 99.715 22.4854 98.3104 21.8073 96.7265C21.0985 95.0529 20.3896 93.7977 20.1122 93.7678C19.8656 93.738 19.1876 93.9173 18.6637 94.1564Z" fill="black"/>
<path d="M122.004 96.1585C121.603 97.0252 121.357 97.8022 121.48 97.8918C121.573 98.0114 123.391 98.878 125.518 99.8045C127.644 100.761 129.463 101.687 129.586 101.867C129.956 102.404 129.863 103.929 129.37 104.825C128.939 105.632 128.939 105.632 130.511 106.409C132.052 107.156 132.113 107.186 132.545 106.648C132.822 106.26 132.915 105.542 132.822 104.496C132.73 103.092 132.76 102.942 133.254 103.092C133.685 103.241 133.993 102.942 134.61 101.777L135.38 100.253L134.394 99.8344C133.839 99.5953 130.973 98.3401 128.045 96.9953L122.713 94.6045L122.004 96.1585Z" fill="black"/>
<path d="M112.727 110.414L111.525 111.609L112.573 112.655L113.621 113.701L112.943 114.389L112.265 115.076L113.19 115.943C114.083 116.779 114.114 116.779 114.762 116.241C115.378 115.674 115.409 115.674 118.398 118.782C121.388 121.89 121.45 121.92 122.837 121.92C124.069 121.92 124.408 121.77 125.518 120.724C126.196 120.097 126.751 119.469 126.751 119.379C126.751 119.29 126.381 118.841 125.98 118.393C125.24 117.616 125.179 117.586 124.532 118.005C124.162 118.274 123.607 118.483 123.33 118.483C123.052 118.483 121.758 117.347 120.433 115.943L118.029 113.372L118.861 112.536L119.662 111.729L118.799 110.922L117.905 110.085L117.073 110.743L116.241 111.4L115.07 110.294L113.929 109.218L112.727 110.414Z" fill="black"/>
<path d="M33.581 114.956C29.2353 117.467 25.6602 119.618 25.6602 119.708C25.6602 119.828 26.2766 120.395 27.0163 120.993L28.4032 122.069L29.9442 121.143C30.8072 120.635 31.6393 120.276 31.8243 120.336C31.9784 120.366 33.1495 121.202 34.3823 122.189L36.6631 123.952L36.0467 125.536C35.7076 126.402 35.5227 127.299 35.6152 127.508C35.7693 127.956 38.2349 129.69 38.4198 129.51C38.4507 129.451 39.8068 125.566 41.3478 120.904L44.2141 112.416L43.0121 111.43C42.3649 110.892 41.7793 110.444 41.6868 110.414C41.5943 110.414 37.9575 112.476 33.581 114.956ZM39.3136 116.899C38.8821 118.035 38.389 119.379 38.2041 119.887C38.0192 120.425 37.7726 120.874 37.6185 120.874C37.4644 120.874 36.6631 120.336 35.8309 119.648L34.3207 118.423L37.0021 116.69C38.4815 115.733 39.7759 114.927 39.8992 114.927C40.0225 114.897 39.7451 115.793 39.3136 116.899Z" fill="black"/>
<path d="M109.801 116.959C106.256 118.005 104.376 120.754 105.147 123.773C106.041 127.209 108.876 129.839 111.711 129.839C115.718 129.839 118.923 125.924 117.475 122.846L117.105 122.099L115.811 122.966C114.763 123.653 114.547 123.982 114.639 124.55C114.855 125.596 113.561 126.94 112.328 126.94C111.126 126.94 110.325 126.253 109.153 124.31C108.105 122.547 108.013 121.173 108.876 120.425C109.647 119.738 111.157 119.708 111.896 120.366C112.42 120.814 112.544 120.814 113.684 120.067C114.331 119.648 114.948 119.23 115.009 119.17C115.348 118.931 113.283 117.258 112.297 116.989C111.033 116.66 110.879 116.66 109.801 116.959Z" fill="black"/>
<path d="M44.2149 125.147C42.6431 128.136 41.3486 130.676 41.3794 130.795C41.3794 131.064 43.6602 132.23 44.1533 132.23C44.3074 132.23 45.2936 130.616 46.3107 128.644C48.4373 124.549 48.8996 124.131 50.7797 124.878C51.3961 125.147 52.0433 125.356 52.1358 125.356C52.2591 125.356 52.6906 124.789 53.0912 124.101L53.8001 122.876L53.0604 122.278C52.4748 121.83 52.0433 121.74 50.9954 121.89C49.8243 122.039 49.6702 122.009 49.8243 121.531C49.9784 121.113 49.701 120.814 48.8072 120.336C48.1599 119.977 47.4819 119.678 47.3586 119.678C47.2045 119.678 45.7868 122.129 44.2149 125.147Z" fill="black"/>
<path d="M66.0352 121.382C66.0352 121.531 65.6961 125.386 65.2647 129.988C64.8332 134.591 64.4941 138.506 64.4941 138.715C64.4941 139.074 67.4837 139.582 67.7919 139.283C67.8844 139.193 68.1618 137.131 68.3775 134.71C68.809 129.929 68.9939 129.54 70.6891 129.54C71.9219 129.54 72.5075 129.839 72.7848 130.556C72.9389 130.885 72.8773 133.067 72.6616 135.368C72.3842 138.476 72.3534 139.611 72.6307 139.761C72.8157 139.88 73.617 140 74.3875 140H75.8053L76.2059 135.129C76.6374 129.57 76.4525 128.524 74.6033 127.448C73.4013 126.731 71.0589 126.641 70.1651 127.299C69.8569 127.538 69.4562 127.747 69.333 127.747C69.1789 127.747 69.148 126.343 69.2713 124.639C69.4871 121.561 69.4871 121.561 68.7782 121.382C67.7611 121.113 66.0352 121.113 66.0352 121.382Z" fill="black"/>
<path d="M86.2823 123.055L84.7721 123.354L84.9878 124.908C85.1727 126.462 85.1727 126.462 84.2481 126.641C83.6625 126.761 83.3543 127 83.416 127.209C83.5084 127.418 83.6317 127.986 83.755 128.434C83.9091 129.182 84.0324 129.271 84.8337 129.092C85.3577 128.972 85.7583 128.942 85.7583 129.032C85.7583 129.66 87.361 136.563 87.6075 137.011C88.3781 138.416 90.3814 138.894 92.508 138.177C93.4326 137.848 93.4943 137.729 93.3402 136.922C93.2477 136.444 93.1552 135.936 93.1552 135.786C93.1552 135.637 92.6929 135.517 92.1073 135.517C91.5217 135.517 90.9362 135.338 90.7821 135.129C90.443 134.621 89.1794 128.554 89.3643 128.285C89.426 128.136 89.8266 128.046 90.2273 128.046C91.1827 128.046 91.3676 127.687 91.1519 126.432C90.9362 125.446 90.9053 125.416 89.765 125.565L88.6246 125.715L88.4089 124.34C88.2856 123.593 88.1007 122.936 87.9774 122.876C87.8541 122.816 87.0836 122.906 86.2823 123.055Z" fill="black"/>
<path d="M55.3686 124.729C53.0263 125.745 51.5469 128.464 51.5469 131.692C51.5469 134.292 52.5948 135.876 54.9988 136.862C57.3719 137.788 60.0225 137.28 61.3786 135.637C62.3032 134.471 62.1799 134.142 60.6697 133.724C59.4369 133.395 59.252 133.425 58.6664 133.993C57.9267 134.71 57.187 134.77 56.0467 134.262C54.7522 133.694 54.5365 132.11 55.3994 129.57C55.985 127.807 56.7864 127.06 58.0192 127.06C59.1904 127.06 60.115 127.867 60.2382 129.032C60.3307 129.809 60.5156 129.988 61.6868 130.317C62.4573 130.526 63.1662 130.646 63.3203 130.556C63.4436 130.467 63.5669 129.869 63.5669 129.211C63.5669 125.506 59.0979 123.085 55.3686 124.729Z" fill="black"/>
<path d="M79.8418 127.06C78.8247 127.209 78.8247 127.06 79.3178 133.724C79.7802 140.179 79.5952 139.701 81.5986 139.701C83.0163 139.701 83.2937 139.612 83.2937 139.163C83.2937 138.894 83.0779 136.235 82.8314 133.276C82.5848 130.317 82.3691 127.658 82.3691 127.359C82.3691 126.851 81.8143 126.761 79.8418 127.06Z" fill="black"/>
<ellipse cx="27.0804" cy="110.584" rx="1.89782" ry="1.89781" fill="black"/>
<ellipse cx="124.818" cy="109.635" rx="1.89782" ry="1.89781" fill="black"/>
</g>
<defs>
<clipPath id="clip0_333_297">
<rect width="130" height="130" fill="white" transform="matrix(1 0 0 -1 10 140)"/>
</clipPath>
</defs>
</svg>
